PathFileType	4	(X/Y/Z)	I12_1_OpenSim.trc																																																																																																																						
DataRate	CameraRate	NumFrames	NumMarkers	Units	OrigDataRate	OrigDataStartFrame	OrigNumFrames																																																																																																																		
100	100	9	40	mm	100	376	3000																																																																																																																		
Frame#	Time	R.ASIS			R.PSIS			S2			L.PSIS			L.ASIS			R.TH1			R.TH2			R.TH3			R.MKnee			R.Knee			R.SH1			R.SH2			R.SH3			R.SH4			R.Ankle			R.MAnkle			R.Heel			R.MT5			R.MT1			L.TH1			L.TH2			L.TH3			L.TH4			L.MKnee			L.Knee			L.SH1			L.SH2			L.SH3			L.Ankle			L.MAnkle			L.Heel			L.MT5			L.MT1			R.Acr			L.Acr			C7			T10			Clav			Sternum			R.Back		
		X1	Y1	Z1	X2	Y2	Z2	X3	Y3	Z3	X4	Y4	Z4	X5	Y5	Z5	X6	Y6	Z6	X7	Y7	Z7	X8	Y8	Z8	X9	Y9	Z9	X10	Y10	Z10	X11	Y11	Z11	X12	Y12	Z12	X13	Y13	Z13	X14	Y14	Z14	X15	Y15	Z15	X16	Y16	Z16	X17	Y17	Z17	X18	Y18	Z18	X19	Y19	Z19	X20	Y20	Z20	X21	Y21	Z21	X22	Y22	Z22	X23	Y23	Z23	X24	Y24	Z24	X25	Y25	Z25	X26	Y26	Z26	X27	Y27	Z27	X28	Y28	Z28	X29	Y29	Z29	X30	Y30	Z30	X31	Y31	Z31	X32	Y32	Z32	X33	Y33	Z33	X34	Y34	Z34	X35	Y35	Z35	X36	Y36	Z36	X37	Y37	Z37	X38	Y38	Z38	X39	Y39	Z39	X40	Y40	Z40
376	3.75	867.624	1040.9207	-471.9116	639.873	1033.1698	-550.2137	621.1401	1032.3319	-594.7252	639.3425	1034.2672	-645.9217	842.6581	1029.1255	-761.2256	935.5357	741.1132	-444.8668	863.3958	704.5972	-431.2927	910.2291	606.8627	-446.52	978.6981	509.2161	-574.5792	982.8113	513.7579	-458.1055	1031.0955	357.0277	-453.9768	1059.2747	249.4888	-470.7108	951.4938	335.9112	-446.4022	983.8087	227.7896	-453.6755	1045.5789	77.334	-461.3333	1078.912	104.7844	-553.945	1000.4025	26.7942	-521.5065	1165.7296	65.6311	-427.874	1214.1064	82.1536	-513.6401	780.6916	728.2269	-768.2371	744.1285	625.4009	-754.4852	700.7763	750.7576	-780.148	667.6454	647.8713	-758.3516	670.7426	488.7297	-635.0757	661.3869	498.1415	-743.8518	604.0458	373.7201	-758.5343	532.8959	414.7764	-762.1404	479.5132	319.0421	-754.749	429.0269	111.201	-746.9535	461.0386	117.0542	-648.5101	355.5615	93.6491	-691.4562	517.9457	34.6517	-763.2636	556.4374	45.0087	-659.713	800.963	1431.5227	-446.1343	800.9584	1438.4274	-761.8685	751.1478	1472.6556	-607.5829	715.1241	1146.8762	-612.0895	890.0971	1378.748	-607.0704	918.3987	1233.6528	-601.1616	667.2362	1371.017	-536.5815
377	3.76	869.6098	1041.6327	-469.8247	642.0102	1033.5923	-548.0379	623.3992	1032.5192	-592.5466	641.8248	1034.0875	-643.6204	844.6951	1028.865	-759.1136	936.8779	740.6486	-443.4438	864.3332	704.7418	-430.7817	910.3008	606.6449	-446.8418	977.4824	509.2578	-575.032	982.6158	513.3073	-458.718	1028.7208	355.4538	-455.3465	1054.5947	247.3835	-472.3567	949.0015	335.7955	-446.3916	979.129	227.0921	-454.0015	1036.7964	76.3192	-462.2303	1070.1404	102.288	-555.3177	989.2649	27.4349	-521.8945	1156.7568	60.8458	-430.308	1204.9419	75.2695	-516.6033	782.436	728.3018	-766.4561	746.0783	625.3272	-753.088	702.4069	750.7989	-777.8435	669.4972	647.7142	-756.6509	673.2489	487.9069	-634.5196	663.5013	497.9102	-743.4019	603.0336	374.7614	-758.464	532.8904	417.6346	-761.4022	476.9874	323.2843	-754.4627	421.7715	115.7845	-748.017	453.9796	120.9493	-649.7032	347.8263	101.8003	-692.326	507.2491	35.0134	-764.0501	545.317	44.7632	-659.9324	801.5365	1431.848	-444.2676	801.0184	1438.0972	-760.258	751.46	1472.5902	-605.8268	716.6779	1146.6617	-610.0772	890.7129	1379.0597	-605.4206	919.5976	1234.1322	-599.2934	667.9506	1370.7258	-534.5863
378	3.77	871.6674	1042.7841	-467.6221	644.3132	1034.4187	-545.9365	625.8524	1033.0985	-590.46	644.4686	1034.3324	-641.423	846.9837	1028.9851	-756.8946	938.1926	740.4874	-441.9578	865.2593	705.2704	-429.9679	910.2805	606.7656	-446.7803	975.5765	509.2887	-575.2496	982.3218	513.1202	-459.0611	1026.2715	354.2141	-456.4063	1049.8207	245.6397	-473.6841	946.5542	335.9767	-445.675	974.4967	226.7308	-453.655	1027.8138	75.519	-462.703	1061.0862	100.1558	-556.2122	977.9351	28.3099	-521.8613	1147.5076	56.3155	-432.4371	1195.4292	68.7143	-519.2457	784.9464	728.5754	-764.552	749.0698	625.3654	-751.6157	704.7726	750.8123	-775.4806	672.3449	647.4548	-754.9539	677.0906	486.9986	-634.0187	667.0157	497.5959	-743.0269	603.2178	375.9129	-758.4371	534.1637	420.6914	-760.632	475.7525	327.8124	-754.0884	415.4379	120.898	-749.0693	447.8489	125.086	-650.9635	341.1483	110.8681	-693.1722	496.79	35.6127	-764.8694	534.4487	44.5766	-660.1477	802.0918	1432.5831	-442.3267	801.1088	1438.0904	-758.5937	751.7762	1472.8561	-604.0403	718.2749	1146.7969	-608.0055	891.3464	1379.764	-603.6956	920.8524	1235.0248	-597.2976	668.6973	1370.7638	-532.4972
379	3.78	873.7601	1044.3265	-465.3052	646.7051	1035.6012	-543.8955	628.3948	1034.0391	-588.4438	647.1555	1034.991	-639.3207	849.4274	1029.4968	-754.5753	939.4705	740.6161	-440.4511	866.183	706.1564	-428.8019	910.1874	607.2057	-446.2422	973.0858	509.3085	-575.1476	981.8401	513.1195	-459.0549	1023.6101	353.2144	-457.074	1044.8562	244.1801	-474.6311	943.9847	336.3506	-444.3344	969.7758	226.6106	-452.7353	1018.6251	74.9003	-462.8221	1051.833	98.4139	-556.6532	966.571	29.2919	-521.5339	1137.9614	52.1944	-434.1222	1185.6318	62.7232	-521.3769	788.2469	729.0222	-762.5515	753.1644	625.4884	-750.1393	707.8933	750.738	-773.1042	676.2508	647.0311	-753.3166	682.4182	485.9365	-633.606	672.0489	497.1423	-742.7541	604.74	377.1274	-758.4577	536.8708	423.8926	-759.8251	475.9828	332.5804	-753.6045	410.1498	126.6064	-750.0512	442.7383	129.4869	-652.2433	335.7187	120.8833	-693.9525	486.6187	36.6104	-765.6838	523.902	44.5563	-660.3501	802.6259	1433.7181	-440.3505	801.2162	1438.415	-756.8791	752.0768	1473.4311	-602.2425	719.8709	1147.2692	-605.8611	891.9706	1380.842	-601.9117	922.1196	1236.3052	-595.1999	669.4653	1371.1261	-530.334
380	3.79	875.8404	1046.1893	-462.8775	649.0957	1037.0557	-541.8836	630.9135	1035.2719	-586.4609	649.7771	1035.9974	-637.2773	851.9116	1030.3842	-752.1658	940.6812	740.9782	-438.9326	867.0751	707.3341	-427.2805	909.993	607.9045	-445.2084	970.1647	509.3366	-574.6693	981.0335	513.2065	-458.6574	1020.5593	352.3474	-457.3102	1039.5573	242.9096	-475.1697	941.0661	336.8093	-442.5404	964.7633	226.6274	-451.4122	1009.1687	74.4365	-462.6787	1042.3855	97.0466	-556.7151	955.2269	30.266	-521.0315	1128.0625	48.6078	-435.2881	1175.5635	57.456	-522.8942	792.3372	729.6035	-760.4861	758.3865	625.6635	-748.7381	711.7618	750.52	-770.7643	681.2433	646.3876	-751.7991	689.3379	484.6601	-633.3133	678.6611	496.5048	-742.6009	607.7062	378.3607	-758.5295	541.1382	427.1773	-758.9772	477.8	337.545	-752.9946	406.0295	132.9785	-750.908	438.7175	134.2159	-653.4856	331.7165	131.877	-694.6299	476.8113	38.2154	-766.4534	513.7555	44.8413	-660.5295	803.1442	1435.2225	-438.3835	801.3193	1439.0569	-755.1199	752.3415	1474.2788	-600.4507	721.4277	1148.0448	-603.6262	892.5585	1382.2526	-600.0941	923.3551	1237.9259	-593.0355	670.2426	1371.7905	-528.1185
381	3.8	877.8555	1048.2916	-460.3511	651.3919	1038.6797	-539.8617	633.3008	1036.7014	-584.4687	652.2357	1037.2505	-635.2455	854.3133	1031.6022	-749.6846	941.7555	741.4828	-437.3688	867.8471	708.7074	-425.4473	909.601	608.7728	-443.7356	966.9405	509.395	-573.8072	979.7451	513.2889	-457.8701	1016.9623	351.5263	-457.1277	1033.7954	241.7488	-475.3194	937.5925	337.2647	-440.4983	959.2759	226.6957	-449.8786	999.3845	74.1114	-462.3749	1032.7043	96.0143	-556.5114	943.8956	31.1454	-520.4547	1117.7707	45.6441	-435.9444	1165.2228	52.9983	-523.8022	797.1877	730.275	-758.3878	764.7208	625.8558	-747.4704	716.3467	750.1135	-768.51	687.3075	645.4876	-750.4568	697.8893	483.1367	-633.1635	686.8376	495.6652	-742.5679	612.1716	379.5839	-758.6537	547.0458	430.4888	-758.0851	481.2634	342.6697	-752.2452	403.1965	140.0806	-751.597	435.8474	139.368	-654.6281	329.3088	143.8777	-695.1766	467.4863	40.6662	-767.1399	504.1062	45.585	-660.6779	803.6567	1437.0481	-436.4627	801.3892	1439.9793	-753.3269	752.5532	1475.3546	-598.6788	722.9092	1149.0759	-601.2891	893.0862	1383.9352	-598.2751	924.5186	1239.8214	-590.8484	671.0156	1372.7213	-525.869
382	3.81	879.754	1050.5543	-457.7496	653.5092	1040.3723	-537.7962	635.4662	1038.2225	-582.4309	654.4481	1038.6337	-633.1845	856.517	1033.0844	-747.1584	942.5843	742.0228	-435.6977	868.3594	710.1694	-423.3794	908.8637	609.7147	-441.9342	963.4708	509.4976	-572.6093	977.8454	513.3018	-456.7409	1012.7202	350.6958	-456.5912	1027.4879	240.6471	-475.1503	933.4307	337.6621	-438.4047	953.1952	226.7614	-448.3126	989.2428	73.9149	-462.012	1022.7382	95.2655	-556.1718	932.5434	31.8771	-519.8834	1107.0809	43.3441	-436.1784	1154.6084	49.3733	-524.2028	802.739	730.9983	-756.286	772.1088	626.0399	-746.3583	721.5942	749.4947	-766.3857	694.3837	644.3233	-749.3282	708.0306	481.3792	-633.1585	696.4885	494.6428	-742.6384	618.1322	380.7951	-758.8259	554.6068	433.7883	-757.1443	486.3675	347.9291	-751.3422	401.7698	147.9628	-752.0908	434.1969	145.0467	-655.6081	328.6563	156.8947	-695.5731	458.8032	44.1931	-767.7065	495.0732	46.9334	-660.7897	804.1743	1439.1339	-434.6111	801.3914	1441.1277	-751.5181	752.7011	1476.6126	-596.9361	724.2802	1150.3098	-598.8503	893.5344	1385.8175	-596.4898	925.5757	1241.9137	-588.6892	671.7704	1373.8752	-523.5956
383	3.82	881.491	1052.9078	-455.1056	655.3794	1042.0464	-535.6702	637.3412	1039.7355	-580.3296	656.3503	1040.0344	-631.072	858.4315	1034.7577	-744.6213	943.04	742.4999	-433.8596	868.455	711.6209	-421.1676	907.6251	610.6442	-439.9383	959.7535	509.6499	-571.1639	975.2612	513.2129	-455.3567	1007.7938	349.8298	-455.7987	1020.6019	239.5792	-474.7629	928.5281	337.9803	-436.4216	946.4714	226.7997	-446.8546	978.7479	73.8348	-461.6727	1012.4495	94.7444	-555.8134	921.135	32.4417	-519.3792	1096.0232	41.691	-436.1222	1143.7256	46.554	-524.2545	808.9032	731.754	-754.2078	780.4471	626.2155	-745.3918	727.4296	748.6697	-764.4251	702.3739	642.9207	-748.4194	719.6334	479.4592	-633.2662	707.4598	493.4988	-742.7788	625.527	382.0263	-759.0323	563.7541	437.0672	-756.1446	493.0476	353.3073	-750.2662	401.8658	156.6343	-752.3765	433.855	151.3284	-656.3685	329.9134	170.8879	-695.8048	450.9584	48.9673	-768.1141	486.7915	49.0044	-660.8597	804.7092	1441.4122	-432.8398	801.2888	1442.4371	-749.7189	752.781	1478.0095	-595.2277	725.5068	1151.6953	-596.3232	893.8884	1387.8257	-594.7724	926.5004	1244.1219	-586.6076	672.4941	1375.2096	-521.2995
384	3.83	883.0267	1055.2937	-452.4573	656.9531	1043.6327	-533.4887	638.8813	1041.1569	-578.1693	657.9004	1041.3575	-628.9092	859.9983	1036.5564	-742.11	943.0112	742.8469	-431.8296	868.0023	712.9851	-418.9014	905.7681	611.4982	-437.8782	955.7626	509.8474	-569.5752	971.9742	513.0166	-453.8211	1002.185	348.925	-454.8535	1013.1422	238.5353	-474.2552	922.8909	338.222	-434.6571	939.1025	226.8045	-445.5947	967.9294	73.8496	-461.4069	1001.8309	94.3959	-555.5143	909.6479	32.8474	-518.9836	1084.652	40.6082	-435.9059	1132.5908	44.4679	-524.1144	815.5693	732.5491	-752.1765	789.5909	626.4149	-744.5363	733.7598	747.6764	-762.6401	711.1507	641.3378	-747.6959	732.4894	477.5074	-633.4171	719.5522	492.3318	-742.9406	634.2496	383.3398	-759.2487	574.3456	440.347	-755.0653	501.1943	358.7891	-748.9938	403.5885	166.0377	-752.4563	434.9249	158.2308	-656.8666	333.2076	185.7339	-695.8643	444.1846	55.0533	-768.3195	479.4126	51.8711	-660.8807	805.2742	1443.8142	-431.1547	801.0463	1443.8406	-747.9584	752.795	1479.5088	-593.555	726.56	1153.1875	-593.7307	894.1391	1389.8932	-593.1529	927.2756	1246.3709	-584.6445	673.1734	1376.6867	-518.9755
